<svg width="37" height="37" viewBox="0 0 37 37" fill="none" xmlns="http://www.w3.org/2000/svg">
<path d="M18.3652 0C23.2359 0 27.9072 1.9349 31.3513 5.37904C34.7954 8.82315 36.7303 13.4944 36.7303 18.3652C36.7303 23.2359 34.7954 27.9072 31.3513 31.3513C27.9072 34.7955 23.2359 36.7304 18.3652 36.7304C13.4944 36.7304 8.82318 34.7955 5.37902 31.3513C1.93489 27.9072 0 23.2359 0 18.3652C0 13.4944 1.93489 8.82315 5.37902 5.37904C8.82318 1.9349 13.4944 0 18.3652 0ZM10.3304 17.2174C10.026 17.2174 9.73405 17.3383 9.51876 17.5535C9.30352 17.7688 9.18259 18.0607 9.18259 18.3652C9.18259 18.6696 9.30352 18.9616 9.51876 19.1768C9.73405 19.3921 10.026 19.513 10.3304 19.513H23.6291L18.7003 24.4395C18.5936 24.5462 18.509 24.6728 18.4512 24.8123C18.3935 24.9517 18.3637 25.1012 18.3637 25.2521C18.3637 25.403 18.3935 25.5525 18.4512 25.6919C18.509 25.8314 18.5936 25.958 18.7003 26.0648C18.807 26.1715 18.9338 26.2562 19.0732 26.3139C19.2126 26.3717 19.3621 26.4014 19.513 26.4014C19.6639 26.4014 19.8134 26.3717 19.9528 26.3139C20.0922 26.2562 20.219 26.1715 20.3257 26.0648L27.2126 19.1778C27.3195 19.0712 27.4043 18.9446 27.4622 18.8051C27.52 18.6656 27.5498 18.5162 27.5498 18.3652C27.5498 18.2142 27.52 18.0647 27.4622 17.9253C27.4043 17.7858 27.3195 17.6591 27.2126 17.5525L20.3257 10.6656C20.219 10.5588 20.0922 10.4742 19.9528 10.4164C19.8134 10.3587 19.6639 10.329 19.513 10.329C19.3621 10.329 19.2126 10.3587 19.0732 10.4164C18.9338 10.4742 18.807 10.5588 18.7003 10.6656C18.5936 10.7723 18.509 10.899 18.4512 11.0384C18.3935 11.1778 18.3637 11.3273 18.3637 11.4783C18.3637 11.6292 18.3935 11.7786 18.4512 11.9181C18.509 12.0575 18.5936 12.1842 18.7003 12.2909L23.6291 17.2174H10.3304Z" fill="#F15623"/>
</svg>
