<svg width="44" height="44" viewBox="0 0 44 44" fill="none" xmlns="http://www.w3.org/2000/svg">
<rect x="5" y="5" width="33.59" height="33.59" rx="16.795" fill="#1877F2"/>
<path d="M30.8125 20.8418C30.8125 19.5996 30.5781 18.4336 30.1094 17.3438C29.6289 16.2539 28.9814 15.3018 28.167 14.4873C27.3525 13.6729 26.4004 13.0254 25.3105 12.5449C24.2207 12.0762 23.0488 11.8418 21.7949 11.8418C20.5527 11.8418 19.3867 12.0762 18.2969 12.5449C17.207 13.0254 16.2549 13.6729 15.4404 14.4873C14.626 15.3018 13.9785 16.2539 13.498 17.3438C13.0293 18.4336 12.7949 19.5996 12.7949 20.8418C12.7949 21.9668 12.9883 23.0332 13.375 24.041C13.7617 25.0488 14.2949 25.9453 14.9746 26.7305C15.6543 27.5156 16.457 28.1719 17.3828 28.6992C18.3203 29.2266 19.3223 29.5781 20.3887 29.7539V23.4609H18.1035V20.8418H20.3887V18.873C20.3887 17.7363 20.6992 16.8662 21.3203 16.2627C21.9414 15.6592 22.7676 15.3574 23.7988 15.3574C24.291 15.3574 24.751 15.3867 25.1787 15.4453C25.6064 15.5039 25.8203 15.5332 25.8203 15.5332V17.748H24.6777C24.1152 17.748 23.7314 17.8945 23.5264 18.1875C23.3213 18.4805 23.2188 18.8027 23.2188 19.1543V20.8418H25.7148L25.3105 23.4609H23.2188V29.7539C24.2852 29.5781 25.2812 29.2266 26.207 28.6992C27.1328 28.1719 27.9385 27.5156 28.624 26.7305C29.3096 25.9453 29.8457 25.0488 30.2324 24.041C30.6191 23.0332 30.8125 21.9668 30.8125 20.8418Z" fill="#E7E7E7"/>
</svg>
