<svg width="38" height="38" viewBox="0 0 38 38" fill="none" xmlns="http://www.w3.org/2000/svg">
<rect width="38" height="38" rx="8" fill="#F9F9F9"/>
<g clip-path="url(#clip0_184_1595)">
<g clip-path="url(#clip1_184_1595)">
<path d="M22.5562 21.5477L22.1007 22.0272C22.1007 22.0272 21.0181 23.167 18.0631 20.0559C15.1081 16.9448 16.1907 15.8051 16.1907 15.8051L16.4775 15.5031C17.1841 14.7592 17.2507 13.565 16.6342 12.6931L15.3733 10.9096C14.6103 9.8305 13.136 9.68795 12.2614 10.6086L10.6918 12.2611C10.2582 12.7177 9.96765 13.3095 10.0029 13.9659C10.093 15.6455 10.8107 19.259 14.8154 23.4752C19.0621 27.9462 23.0468 28.1239 24.6763 27.9631C25.1917 27.9122 25.6399 27.6343 26.0011 27.254L27.4217 25.7584C28.3806 24.7489 28.1102 23.0182 26.8833 22.312L24.9728 21.2123C24.1672 20.7486 23.1858 20.8848 22.5562 21.5477Z" fill="#F15623"/>
<path d="M20.2595 8.87983C20.3257 8.47094 20.7122 8.19357 21.1211 8.25976C21.1464 8.26461 21.2279 8.27983 21.2705 8.28933C21.3559 8.30834 21.4749 8.33759 21.6233 8.38082C21.9201 8.46726 22.3347 8.60967 22.8323 8.8378C23.8286 9.29456 25.1544 10.0936 26.5302 11.4694C27.906 12.8452 28.705 14.171 29.1617 15.1673C29.3899 15.6649 29.5323 16.0795 29.6187 16.3763C29.6619 16.5247 29.6912 16.6437 29.7102 16.729C29.7197 16.7717 29.7267 16.8059 29.7315 16.8313L29.7373 16.8625C29.8034 17.2713 29.5286 17.6739 29.1197 17.7401C28.712 17.8061 28.3279 17.53 28.2601 17.1231C28.258 17.1121 28.2522 17.0828 28.2461 17.0551C28.2337 16.9997 28.2124 16.9119 28.1786 16.7957C28.1109 16.5634 27.9934 16.2181 27.7982 15.7924C27.4084 14.9421 26.7074 13.7679 25.4695 12.53C24.2317 11.2922 23.0575 10.5912 22.2072 10.2013C21.7815 10.0062 21.4362 9.88865 21.2038 9.82097C21.0877 9.78714 20.9417 9.75363 20.8863 9.7413C20.4793 9.67347 20.1935 9.28755 20.2595 8.87983Z" fill="#F15623"/>
<path fill-rule="evenodd" clip-rule="evenodd" d="M20.4861 12.3293C20.5999 11.931 21.015 11.7004 21.4133 11.8142L21.2073 12.5354C21.4133 11.8142 21.4133 11.8142 21.4133 11.8142L21.4148 11.8146L21.4163 11.8151L21.4196 11.816L21.4274 11.8184L21.4472 11.8245C21.4622 11.8293 21.4811 11.8356 21.5035 11.8436C21.5484 11.8595 21.6078 11.8822 21.6806 11.9134C21.8263 11.9758 22.0253 12.0722 22.2699 12.217C22.7593 12.5066 23.4275 12.9878 24.2125 13.7728C24.9975 14.5578 25.4786 15.2259 25.7683 15.7154C25.913 15.9599 26.0094 16.159 26.0719 16.3047C26.1031 16.3775 26.1258 16.4368 26.1417 16.4817C26.1497 16.5042 26.1559 16.523 26.1608 16.5381L26.1669 16.5579L26.1692 16.5656L26.1702 16.569L26.1706 16.5705C26.1706 16.5705 26.1711 16.572 25.4499 16.778L26.1711 16.572C26.2849 16.9702 26.0542 17.3853 25.656 17.4991C25.2611 17.6119 24.8496 17.3862 24.7317 16.9941L24.728 16.9834C24.7227 16.9683 24.7117 16.9388 24.6932 16.8956C24.6562 16.8092 24.5891 16.668 24.4775 16.4794C24.2545 16.1027 23.8518 15.5334 23.1518 14.8334C22.4519 14.1335 21.8826 13.7308 21.5059 13.5078C21.3173 13.3962 21.1761 13.3291 21.0897 13.2921C21.0465 13.2736 21.0169 13.2626 21.0019 13.2572L20.9911 13.2535C20.5991 13.1357 20.3733 12.7242 20.4861 12.3293Z" fill="#F15623"/>
</g>
</g>
<defs>
<clipPath id="clip0_184_1595">
<rect width="24" height="24" fill="white" transform="translate(7 7)"/>
</clipPath>
<clipPath id="clip1_184_1595">
<rect width="24" height="24" fill="white" transform="translate(7 7)"/>
</clipPath>
</defs>
</svg>
