<svg width="34" height="34" viewBox="0 0 34 34" fill="none" xmlns="http://www.w3.org/2000/svg">
<rect width="33.59" height="33.59" rx="16.795" fill="#0D0D0D" fill-opacity="0.95"/>
<path d="M24.7949 11.3584V14.4609C24.2386 14.4079 23.5158 14.2847 22.7162 13.9992C21.6722 13.6262 20.895 13.1163 20.386 12.7214V18.992L20.373 18.9724C20.3813 19.0967 20.386 19.2233 20.386 19.3511C20.386 22.4651 17.7864 25 14.5904 25C11.3945 25 8.79492 22.4651 8.79492 19.3511C8.79492 16.2371 11.3945 13.7011 14.5904 13.7011C14.9034 13.7011 15.2105 13.7253 15.5105 13.7725V16.83C15.2223 16.7299 14.9129 16.6757 14.5904 16.6757C13.0775 16.6757 11.8456 17.8753 11.8456 19.3511C11.8456 20.8269 13.0775 22.0265 14.5904 22.0265C16.1034 22.0265 17.3353 20.8258 17.3353 19.3511C17.3353 19.2959 17.3341 19.2406 17.3305 19.1853V7H20.5112C20.523 7.26247 20.5336 7.52726 20.5454 7.78973C20.5667 8.30661 20.7556 8.80278 21.0852 9.20915C21.4714 9.6869 22.0418 10.2417 22.8426 10.685C23.5926 11.0982 24.2965 11.2767 24.7949 11.3607V11.3584Z" fill="#E7E7E7"/>
</svg>
