<svg width="34" height="34" viewBox="0 0 34 34" fill="none" xmlns="http://www.w3.org/2000/svg">
<rect width="33.59" height="33.59" rx="16.795" fill="#F21818"/>
<path d="M25.6543 12.1152C25.6543 12.1152 25.6016 11.8809 25.4961 11.4121C25.3906 10.9434 25.209 10.5742 24.9512 10.3047C24.5996 9.94141 24.251 9.72754 23.9053 9.66309C23.5596 9.59863 23.2988 9.55469 23.123 9.53125C22.4902 9.49609 21.8105 9.46094 21.084 9.42578C20.3457 9.40234 19.6602 9.3877 19.0273 9.38184C18.3945 9.37598 17.8672 9.36719 17.4453 9.35547C17.0234 9.35547 16.8125 9.35547 16.8125 9.35547C16.8125 9.35547 16.6016 9.35547 16.1797 9.35547C15.7578 9.36719 15.2305 9.37598 14.5977 9.38184C13.9648 9.3877 13.2793 9.40234 12.541 9.42578C11.8145 9.46094 11.1348 9.49609 10.502 9.53125C10.3262 9.55469 10.0654 9.59863 9.71973 9.66309C9.37402 9.72754 9.02539 9.94141 8.67383 10.3047C8.41602 10.5742 8.23438 10.9434 8.12891 11.4121C8.02344 11.8809 7.9707 12.1152 7.9707 12.1152C7.9707 12.1152 7.94141 12.4141 7.88281 13.0117C7.82422 13.6094 7.79492 14.2715 7.79492 14.998V16.3691C7.79492 17.1074 7.82422 17.7783 7.88281 18.3818C7.94141 18.9854 7.9707 19.2871 7.9707 19.2871C7.9707 19.2871 8.02344 19.5186 8.12891 19.9814C8.23438 20.4443 8.41602 20.8164 8.67383 21.0977C9.02539 21.4492 9.40039 21.6572 9.79883 21.7217C10.1973 21.7861 10.4902 21.8359 10.6777 21.8711C11.041 21.9062 11.5625 21.9355 12.2422 21.959C12.9336 21.9824 13.6162 22 14.29 22.0117C14.9639 22.0234 15.5527 22.0293 16.0566 22.0293C16.5605 22.041 16.8125 22.0469 16.8125 22.0469C16.8125 22.0469 17.0234 22.0469 17.4453 22.0469C17.8672 22.0352 18.3945 22.0234 19.0273 22.0117C19.6602 22 20.3457 21.9824 21.084 21.959C21.8105 21.9355 22.4902 21.9062 23.123 21.8711C23.2988 21.8477 23.5596 21.8008 23.9053 21.7305C24.251 21.6602 24.5996 21.4492 24.9512 21.0977C25.209 20.8164 25.3906 20.4443 25.4961 19.9814C25.6016 19.5186 25.6543 19.2871 25.6543 19.2871C25.6543 19.2871 25.6836 18.9854 25.7422 18.3818C25.8008 17.7783 25.8301 17.1074 25.8301 16.3691V14.998C25.8301 14.2715 25.8008 13.6094 25.7422 13.0117C25.6836 12.4141 25.6543 12.1152 25.6543 12.1152ZM19.2383 15.8418L14.9844 18.0566V12.9941L19.8359 15.5254L19.2383 15.8418Z" fill="#E7E7E7"/>
</svg>
